<svg xmlns="http://www.w3.org/2000/svg" style="display: none;">
    <symbol id="arrow-top" width="16" height="18" viewBox="0 0 16 18">
        <path d="M8.70711 0.565443C8.31658 0.174919 7.68342 0.174919 7.29289 0.565443L0.928933 6.9294C0.538408 7.31993 0.538408 7.95309 0.928933 8.34362C1.31946 8.73414 1.95262 8.73414 2.34315 8.34362L8 2.68676L13.6569 8.34362C14.0474 8.73414 14.6805 8.73414 15.0711 8.34362C15.4616 7.95309 15.4616 7.31993 15.0711 6.9294L8.70711 0.565443ZM9 17.1816L9 1.27255L7 1.27255L7 17.1816L9 17.1816Z"/>
    </symbol>
    <symbol id="arrow-right-icon" width="21" height="11" viewBox="0 0 21 11" fill="none" xmlns="http://www.w3.org/2000/svg">
        <path d="M16.67 6.5L14.09 9.09L15.5 10.5L20.5 5.5L15.5 0.5L14.09 1.91L16.67 4.5H0.5V6.5H16.67Z" fill="currentColor"/>
    </symbol>
    <symbol width="14" height="14" viewBox="0 0 14 14" xmlns="http://www.w3.org/2000/svg" id="close-icon">
        <path d="M8.17499 6.99991L13.425 1.75824C13.5819 1.60132 13.6701 1.3885 13.6701 1.16658C13.6701 0.944659 13.5819 0.73183 13.425 0.57491C13.2681 0.417991 13.0552 0.329834 12.8333 0.329834C12.6114 0.329834 12.3986 0.417991 12.2417 0.57491L6.99999 5.82491L1.75832 0.57491C1.6014 0.417991 1.38857 0.329834 1.16666 0.329834C0.944738 0.329834 0.73191 0.417991 0.57499 0.57491C0.41807 0.73183 0.329914 0.944659 0.329914 1.16658C0.329914 1.3885 0.41807 1.60132 0.57499 1.75824L5.82499 6.99991L0.57499 12.2416C0.496883 12.319 0.434888 12.4112 0.392581 12.5128C0.350273 12.6143 0.328491 12.7232 0.328491 12.8332C0.328491 12.9433 0.350273 13.0522 0.392581 13.1537C0.434888 13.2553 0.496883 13.3474 0.57499 13.4249C0.652459 13.503 0.744626 13.565 0.846176 13.6073C0.947725 13.6496 1.05665 13.6714 1.16666 13.6714C1.27667 13.6714 1.38559 13.6496 1.48714 13.6073C1.58869 13.565 1.68085 13.503 1.75832 13.4249L6.99999 8.17491L12.2417 13.4249C12.3191 13.503 12.4113 13.565 12.5128 13.6073C12.6144 13.6496 12.7233 13.6714 12.8333 13.6714C12.9433 13.6714 13.0523 13.6496 13.1538 13.6073C13.2554 13.565 13.3475 13.503 13.425 13.4249C13.5031 13.3474 13.5651 13.2553 13.6074 13.1537C13.6497 13.0522 13.6715 12.9433 13.6715 12.8332C13.6715 12.7232 13.6497 12.6143 13.6074 12.5128C13.5651 12.4112 13.5031 12.319 13.425 12.2416L8.17499 6.99991Z"/>
    </symbol>
    <symbol id="tel-icon" width="16" height="22" viewBox="0 0 16 22" fill="none">
        <path d="M13 1H3C1.89543 1 1 1.89543 1 3V19C1 20.1046 1.89543 21 3 21H13C14.1046 21 15 20.1046 15 19V3C15 1.89543 14.1046 1 13 1Z" stroke="currentColor" stroke-width="1.5" stroke-linecap="round" stroke-linejoin="round"/>
        <path d="M8 17H8.01" stroke="currentColor" stroke-width="1.5" stroke-linecap="round" stroke-linejoin="round"/>
    </symbol>
    <symbol id="shopping-cart-icon" width="30" height="31" viewBox="0 0 30 31">
        <path fill-rule="evenodd" clip-rule="evenodd" d="M11.25 26.4375C11.0774 26.4375 10.9375 26.5774 10.9375 26.75C10.9375 26.9226 11.0774 27.0625 11.25 27.0625C11.4226 27.0625 11.5625 26.9226 11.5625 26.75C11.5625 26.5774 11.4226 26.4375 11.25 26.4375ZM9.0625 26.75C9.0625 25.5419 10.0419 24.5625 11.25 24.5625C12.4581 24.5625 13.4375 25.5419 13.4375 26.75C13.4375 27.9581 12.4581 28.9375 11.25 28.9375C10.0419 28.9375 9.0625 27.9581 9.0625 26.75Z" fill="currentColor"/>
        <path fill-rule="evenodd" clip-rule="evenodd" d="M25 26.4375C24.8274 26.4375 24.6875 26.5774 24.6875 26.75C24.6875 26.9226 24.8274 27.0625 25 27.0625C25.1726 27.0625 25.3125 26.9226 25.3125 26.75C25.3125 26.5774 25.1726 26.4375 25 26.4375ZM22.8125 26.75C22.8125 25.5419 23.7919 24.5625 25 24.5625C26.2081 24.5625 27.1875 25.5419 27.1875 26.75C27.1875 27.9581 26.2081 28.9375 25 28.9375C23.7919 28.9375 22.8125 27.9581 22.8125 26.75Z" fill="currentColor"/>
        <path fill-rule="evenodd" clip-rule="evenodd" d="M0.3125 1.75C0.3125 1.23223 0.732233 0.8125 1.25 0.8125H6.25C6.69684 0.8125 7.08158 1.12786 7.16926 1.56601L8.26939 7.0625H28.75C29.0294 7.0625 29.2943 7.18713 29.4724 7.4024C29.6505 7.61768 29.7233 7.90116 29.6709 8.17563L27.6696 18.6701C27.5124 19.4615 27.0819 20.1723 26.4535 20.6781C25.8275 21.182 25.0449 21.4506 24.2418 21.4375H12.1083C11.3051 21.4506 10.5225 21.182 9.89656 20.6781C9.26841 20.1725 8.83804 19.4621 8.68069 18.6713L6.59069 8.2291C6.5834 8.20006 6.57746 8.17049 6.57295 8.14044L5.48155 2.6875H1.25C0.732233 2.6875 0.3125 2.26776 0.3125 1.75ZM8.64466 8.9375L10.5195 18.3049C10.591 18.6645 10.7867 18.9876 11.0723 19.2176C11.358 19.4475 11.7154 19.5698 12.082 19.5626L12.1 19.5625H24.25L24.268 19.5626C24.6346 19.5698 24.992 19.4475 25.2778 19.2176C25.5625 18.9883 25.7579 18.6664 25.8299 18.3079L25.8305 18.3049L27.6169 8.9375H8.64466Z" fill="currentColor"/>
    </symbol>
    <symbol id="location-icon" width="20" height="24" viewBox="0 0 20 24" fill="none">
        <path fill-rule="evenodd" clip-rule="evenodd" d="M10 1.75C7.81196 1.75 5.71354 2.61919 4.16637 4.16637C2.61919 5.71354 1.75 7.81196 1.75 10C1.75 13.1985 3.8243 16.2657 6.04446 18.6092C7.13921 19.7648 8.2365 20.7099 9.06095 21.3664C9.44324 21.6708 9.76556 21.9122 10 22.0825C10.2344 21.9122 10.5568 21.6708 10.9391 21.3664C11.7635 20.7099 12.8608 19.7648 13.9555 18.6092C16.1757 16.2657 18.25 13.1985 18.25 10C18.25 7.81196 17.3808 5.71354 15.8336 4.16637C14.2865 2.61919 12.188 1.75 10 1.75ZM10 23C9.58397 23.624 9.58354 23.6238 9.58354 23.6238L9.58102 23.6221L9.5748 23.6179L9.55278 23.603C9.53392 23.5902 9.50678 23.5716 9.4719 23.5475C9.40215 23.4992 9.30143 23.4284 9.17416 23.3365C8.91971 23.1528 8.55868 22.8839 8.12655 22.5398C7.2635 21.8526 6.11079 20.8602 4.95554 19.6408C2.6757 17.2343 0.25 13.8015 0.25 10C0.25 7.41414 1.27723 4.93419 3.10571 3.10571C4.93419 1.27723 7.41414 0.25 10 0.25C12.5859 0.25 15.0658 1.27723 16.8943 3.10571C18.7228 4.93419 19.75 7.41414 19.75 10C19.75 13.8015 17.3243 17.2343 15.0445 19.6408C13.8892 20.8602 12.7365 21.8526 11.8734 22.5398C11.4413 22.8839 11.0803 23.1528 10.8258 23.3365C10.6986 23.4284 10.5979 23.4992 10.5281 23.5475C10.4932 23.5716 10.4661 23.5902 10.4472 23.603L10.4252 23.6179L10.419 23.6221L10.4171 23.6233C10.4171 23.6233 10.416 23.624 10 23ZM10 23L10.416 23.624C10.1641 23.792 9.83547 23.7917 9.58354 23.6238L10 23Z" fill="currentColor"/>
        <path fill-rule="evenodd" clip-rule="evenodd" d="M10 7.75C8.75736 7.75 7.75 8.75736 7.75 10C7.75 11.2426 8.75736 12.25 10 12.25C11.2426 12.25 12.25 11.2426 12.25 10C12.25 8.75736 11.2426 7.75 10 7.75ZM6.25 10C6.25 7.92893 7.92893 6.25 10 6.25C12.0711 6.25 13.75 7.92893 13.75 10C13.75 12.0711 12.0711 13.75 10 13.75C7.92893 13.75 6.25 12.0711 6.25 10Z" fill="currentColor"/>
    </symbol>
    <symbol id="calendar-icon" width="20" height="22" viewBox="0 0 20 22" fill="none">
        <path fill-rule="evenodd" clip-rule="evenodd" d="M3 3.75C2.30964 3.75 1.75 4.30964 1.75 5V19C1.75 19.6904 2.30964 20.25 3 20.25H17C17.6904 20.25 18.25 19.6904 18.25 19V5C18.25 4.30964 17.6904 3.75 17 3.75H3ZM0.25 5C0.25 3.48122 1.48122 2.25 3 2.25H17C18.5188 2.25 19.75 3.48122 19.75 5V19C19.75 20.5188 18.5188 21.75 17 21.75H3C1.48122 21.75 0.25 20.5188 0.25 19V5Z" fill="currentColor"/>
        <path fill-rule="evenodd" clip-rule="evenodd" d="M14 0.25C14.4142 0.25 14.75 0.585786 14.75 1V5C14.75 5.41421 14.4142 5.75 14 5.75C13.5858 5.75 13.25 5.41421 13.25 5V1C13.25 0.585786 13.5858 0.25 14 0.25Z" fill="currentColor"/>
        <path fill-rule="evenodd" clip-rule="evenodd" d="M6 0.25C6.41421 0.25 6.75 0.585786 6.75 1V5C6.75 5.41421 6.41421 5.75 6 5.75C5.58579 5.75 5.25 5.41421 5.25 5V1C5.25 0.585786 5.58579 0.25 6 0.25Z" fill="currentColor"/>
        <path fill-rule="evenodd" clip-rule="evenodd" d="M0.25 9C0.25 8.58579 0.585786 8.25 1 8.25H19C19.4142 8.25 19.75 8.58579 19.75 9C19.75 9.41421 19.4142 9.75 19 9.75H1C0.585786 9.75 0.25 9.41421 0.25 9Z" fill="currentColor"/>
    </symbol>
</svg>
